<svg style="width:60%;" viewBox="0 0 256 256"  xmlns="http://www.w3.org/2000/svg">
<path d="M40.2407 220.5L102.5 112.324L102.5 220.5H40.2407Z"  stroke-width="13" stroke-linejoin="round" fill="transparent"/>
<path d="M211.759 220.5L149.5 112.324L149.5 220.5H211.759Z"  stroke-width="13" stroke-linejoin="round" fill="transparent"/>
<line x1="78" y1="59.5" x2="174" y2="59.5"  stroke-width="13"/>
<path d="M45.3896 63.5218C42.6395 61.3491 42.6395 57.1783 45.3896 55.0056L69.8741 35.6614C73.4324 32.8501 78.6648 35.3846 78.6648 39.9195L78.6648 78.6079C78.6648 83.1428 73.4324 85.6773 69.8741 82.8659L45.3896 63.5218Z" />
<path d="M207.163 55.0056C209.913 57.1783 209.913 61.349 207.163 63.5217L182.679 82.8659C179.12 85.6772 173.888 83.1428 173.888 78.6078L173.888 39.9195C173.888 35.3846 179.12 32.8501 182.679 35.6614L207.163 55.0056Z" />
</svg>