<svg xml:space="preserve" viewBox="0 0 100 100" y="0" x="0" xmlns="http://www.w3.org/2000/svg" id="圖層_1" version="1.1" style="margin: initial; display: block; shape-rendering: auto; background: transparent;" preserveAspectRatio="xMidYMid"><g class="ldl-scale" style="transform-origin: 50% 50%; transform: rotate(0deg) scale(0.8, 0.8);"><g class="ldl-ani" style="transform-box: view-box; opacity: 1; transform-origin: 50px 50px; transform: matrix3d(1, 0, 0, 0, 0, 1, 0, 0, 0, 0, 1, 0, 0, 0, 0, 1); animation: 1s linear 0s infinite normal forwards running animate;"><g class="ldl-layer"><g class="ldl-ani" style="transform-box: view-box;"><path fill="inherit" d="M89.982 48.757h-.002a40.04 40.04 0 0 0-2.246-12.003l-.125-.332a40.721 40.721 0 0 0-.574-1.517l-.334-.774a33.907 33.907 0 0 0-.487-1.112l-.078-.168c-.166-.355-.344-.705-.531-1.075l-.187-.367c-.13-.249-.266-.495-.404-.744l-1.44-2.406a38.537 38.537 0 0 0-.666-1.001l-1.74-2.292L59.423 62.63h28.506l.406-1.328c.048-.151.095-.303.137-.451a40.634 40.634 0 0 0 .717-2.97 36.2 36.2 0 0 0 .187-.96c.112-.631.202-1.266.284-1.905l.042-.314c.029-.208.057-.415.077-.619.107-1.026.174-1.96.201-2.843l.02-1.137-.018-1.346z"  ></path></g></g><g class="ldl-layer"><g class="ldl-ani" style="transform-box: view-box;"><path fill="inherit" d="M58.024 89.163l1.838-.429c.358-.091.714-.187 1.073-.288.58-.165 1.156-.346 1.728-.536l.178-.059c.285-.094.569-.189.847-.29.607-.22 1.204-.463 1.797-.711l.27-.11c.199-.081.398-.161.598-.251a41.757 41.757 0 0 0 2.686-1.315l.21-.115c.214-.116.404-.225.584-.331l1.229-.729a40.14 40.14 0 0 0 4.94-3.618 40.837 40.837 0 0 0 2.129-1.971l.121-.113a40.584 40.584 0 0 0 4.588-5.474l.121-.175c.208-.303.411-.61.688-1.037l2.006-3.501c.161-.315.324-.641.412-.844l1.029-2.795H43.77l14.254 24.692z"  ></path></g></g><g class="ldl-layer"><g class="ldl-ani" style="transform-box: view-box;"><path fill="inherit" d="M20.094 76.527l.955 1.023c.106.115.21.229.318.341a41.011 41.011 0 0 0 2.12 2.022l.196.174c.208.186.418.37.631.549.49.412.995.806 1.503 1.192l.244.19c.169.131.337.263.51.388A40.702 40.702 0 0 0 28.934 84l1.219.724c.187.11.376.219.584.334l.337.178c.759.407 1.536.776 2.445 1.194.106.054.213.107.311.149a39.841 39.841 0 0 0 8.692 2.698l.157.032c.622.115 1.244.217 1.859.303l.564.066c.501.063 1.002.125 1.499.168l.183.017c.391.03.78.054 1.269.08l.359.017c.272.011.542.018.91.024l.697.009.854-.014c.246-.005.495-.011.736-.021l.432-.02c.391-.021.78-.045 1.321-.088l2.649-.483L34.347 51.84 20.094 76.527zm26.815 11.795v.002-.002z"  ></path></g></g><g class="ldl-layer"><g class="ldl-ani" style="transform-box: view-box;"><path fill="inherit" d="M79.906 23.463l-.961-1.029a13.335 13.335 0 0 0-.326-.349 39.14 39.14 0 0 0-2.12-2.021l-.116-.103c-.228-.202-.454-.404-.685-.598a38.415 38.415 0 0 0-1.539-1.219l-.234-.183c-.16-.125-.32-.249-.489-.373a40.813 40.813 0 0 0-2.371-1.601l-2.148-1.239a40.129 40.129 0 0 0-11.527-4.055 39.84 39.84 0 0 0-3.868-.537 1.465 1.465 0 0 0-.22-.023l-2.452-.123-.05 1.115-.127-1.118-1.544.003c-.246.005-.494.011-.75.021l-.424.021a37.51 37.51 0 0 0-1.174.077l-2.908.296 21.78 37.725 14.253-24.687z"  ></path></g></g><g class="ldl-layer"><g class="ldl-ani" style="transform-box: view-box;"><path fill="inherit" d="M41.974 10.828l-1.372.32c-.157.035-.314.069-.468.109a41.654 41.654 0 0 0-2.807.826l-.161.054a42.89 42.89 0 0 0-.85.291c-.613.222-1.221.468-1.819.718l-.263.107c-.195.08-.389.158-.581.244-.936.417-1.776.827-2.576 1.254l-2.137 1.235c-3.491 2.154-6.615 4.828-9.369 8.043-.285.334-.561.667-.844 1.022l-.214.276a36.63 36.63 0 0 0-.7.918l-.308.427c-.198.278-.386.54-.605.866l-1.832 2.984-.127.228c-.103.184-.204.37-.312.575l-.254.489c-.172.341-.343.682-.507 1.026l-1.207 2.676H56.23L41.974 10.828z"  ></path></g></g><g class="ldl-layer"><g class="ldl-ani" style="transform-box: view-box;"><path fill="inherit" d="M12.071 37.361l-.404 1.322c-.048.155-.097.309-.139.457a39.505 39.505 0 0 0-.691 2.848l-.038.18c-.062.302-.124.604-.175.903a40.32 40.32 0 0 0-.284 1.906l-.042.309c-.029.208-.057.417-.077.62a38.802 38.802 0 0 0-.201 2.854l-.014.376c-.006.234-.006.441-.006.649l.02 1.444c.13 4.087.884 8.123 2.247 12.01l.137.37c.18.492.361.984.554 1.459l.281.653c.177.421.355.841.545 1.245l.08.172c.166.35.34.697.513 1.037l1.401 2.514c.136.226.273.454.432.705l.217.335c.216.331.43.661.663.993l1.678 2.412 21.81-37.774H12.071z"  ></path></g></g></g></g></svg>